<svg xmlns="http://www.w3.org/2000/svg" xmlns:xlink="http://www.w3.org/1999/xlink" width="500" height="592" viewBox="0 0 500 592"><defs><style>.a{fill:#fff;}.b{fill:#748a9d;font-size:40px;font-family:Montserrat-Medium, Montserrat;font-weight:500;letter-spacing:-0.02em;}.c{fill:#2196f3;}.d{fill:#1976d2;}.e{filter:url(#a);}</style><filter id="a" x="0" y="0" width="500" height="592" filterUnits="userSpaceOnUse"><feOffset dy="5" input="SourceAlpha"/><feGaussianBlur stdDeviation="15" result="b"/><feFlood flood-opacity="0.071"/><feComposite operator="in" in2="b"/><feComposite in="SourceGraphic"/></filter></defs><g transform="translate(44.915 40.432)"><g class="e" transform="matrix(1, 0, 0, 1, -44.91, -40.43)"><rect class="a" width="410" height="502" rx="8" transform="translate(45 40)"/></g><text class="b" transform="translate(199.085 458.568)"><tspan x="-183.34" y="0">Task Management</tspan></text><g transform="translate(48.945 49.075)"><path class="c" d="M119.994,0H22.7A22.726,22.726,0,0,0,0,22.7V81.077a22.726,22.726,0,0,0,22.7,22.7h97.293a22.727,22.727,0,0,0,22.7-22.7V22.7A22.726,22.726,0,0,0,119.994,0Zm0,0"/><path class="d" d="M119.994,213.332H22.7A22.726,22.726,0,0,0,0,236.035V372.246a22.726,22.726,0,0,0,22.7,22.7h97.293a22.726,22.726,0,0,0,22.7-22.7V236.035A22.727,22.727,0,0,0,119.994,213.332Zm0,0" transform="translate(0 -83.609)"/><path class="c" d="M397.329,341.332H300.035a22.727,22.727,0,0,0-22.7,22.7v58.376a22.726,22.726,0,0,0,22.7,22.7h97.293a22.726,22.726,0,0,0,22.7-22.7V364.035A22.726,22.726,0,0,0,397.329,341.332Zm0,0" transform="translate(-108.691 -133.774)"/><path class="d" d="M397.329,0H300.035a22.726,22.726,0,0,0-22.7,22.7V158.912a22.727,22.727,0,0,0,22.7,22.7h97.293a22.726,22.726,0,0,0,22.7-22.7V22.7A22.726,22.726,0,0,0,397.329,0Zm0,0" transform="translate(-108.691)"/></g></g></svg>