<svg xmlns="http://www.w3.org/2000/svg" xmlns:xlink="http://www.w3.org/1999/xlink" width="504" height="592" viewBox="0 0 504 592"><defs><style>.a{fill:#fff;}.b{fill:#e2e4ed;}.c{fill:#4a5160;}.d{fill:#6d7486;}.e{fill:#efada3;}.f{fill:#50dd5a;}.g{fill:#9fa9b7;}.h{fill:#3090fc;}.i{fill:#748a9d;font-size:41px;font-family:Montserrat-Medium, Montserrat;font-weight:500;letter-spacing:-0.01em;}.j{filter:url(#a);}</style><filter id="a" x="0" y="0" width="504" height="592" filterUnits="userSpaceOnUse"><feOffset dy="5" input="SourceAlpha"/><feGaussianBlur stdDeviation="15" result="b"/><feFlood flood-opacity="0.071"/><feComposite operator="in" in2="b"/><feComposite in="SourceGraphic"/></filter></defs><g transform="translate(44.915 40.093)"><g class="j" transform="matrix(1, 0, 0, 1, -44.91, -40.09)"><rect class="a" width="414" height="502" rx="8" transform="translate(45 40)"/></g><g transform="translate(51.085 63.042)"><path class="b" d="M259.779,41H34.091A18.075,18.075,0,0,0,16,59.053V189.3H277.87V59.053A18.075,18.075,0,0,0,259.779,41Z" transform="translate(0)"/><path class="c" d="M192.57,376.141h69.21v51.752H192.57Z" transform="translate(-80.24 -152.301)"/><path class="d" d="M16,312.831v16.481a18.076,18.076,0,0,0,18.091,18.058H259.779a18.076,18.076,0,0,0,18.091-18.058V312.831Z" transform="translate(0 -123.53)"/><ellipse class="e" cx="19.177" cy="19.138" rx="19.177" ry="19.138" transform="translate(185.877 86.615)"/><path class="f" d="M198.617,169.082a3.264,3.264,0,0,1-2.416-1.064L173.49,143.2a3.273,3.273,0,1,1,4.83-4.419L201.031,163.6a3.273,3.273,0,0,1-2.414,5.483Z" transform="translate(-71.179 -43.951)"/><path class="d" d="M265.815,471.547H151.362a3.273,3.273,0,1,1,0-6.547H265.815a3.273,3.273,0,1,1,0,6.547Z" transform="translate(-60.026 -192.682)"/><g transform="translate(39.163 69.101)"><path class="g" d="M227.612,99.056H181.85a3.273,3.273,0,1,1,0-6.547h45.762a3.273,3.273,0,1,1,0,6.547Z" transform="translate(-113.044 -92.509)"/><path class="g" d="M160.546,99.056h-.172a3.273,3.273,0,1,1,0-6.547h.173a3.273,3.273,0,1,1,0,6.547Z" transform="translate(-103.284 -92.509)"/><path class="g" d="M132.219,99.056h-7.638a3.273,3.273,0,0,1,0-6.547h7.638a3.273,3.273,0,0,1,0,6.547Z" transform="translate(-87.019 -92.509)"/><path class="g" d="M82.988,99.056H61.73a3.273,3.273,0,0,1,0-6.547H82.988a3.273,3.273,0,1,1,0,6.547Z" transform="translate(-58.457 -92.509)"/><path class="g" d="M265.715,152.976a3.273,3.273,0,0,1-.037-6.547h.037a3.273,3.273,0,1,1,0,6.547Z" transform="translate(-151.147 -117.012)"/><path class="g" d="M229.348,152.976h-16.21a3.273,3.273,0,1,1,0-6.547h16.21a3.273,3.273,0,1,1,0,6.547Z" transform="translate(-127.262 -117.012)"/><path class="g" d="M110.517,152.976H61.73a3.273,3.273,0,1,1,0-6.547h48.787a3.273,3.273,0,1,1,0,6.547Z" transform="translate(-58.457 -117.012)"/><path class="g" d="M192.289,210.256h-8.6a3.273,3.273,0,0,1,0-6.547h8.6a3.273,3.273,0,1,1,0,6.547Z" transform="translate(-113.88 -143.042)"/><path class="g" d="M127.154,210.256H94.226a3.273,3.273,0,0,1,0-6.547h32.927a3.273,3.273,0,0,1,0,6.547Z" transform="translate(-73.224 -143.042)"/><path class="g" d="M67.014,210.256H61.73a3.273,3.273,0,0,1,0-6.547h5.283a3.273,3.273,0,0,1,0,6.547Z" transform="translate(-58.457 -143.042)"/><path class="g" d="M258.88,263.2h-8.224a3.273,3.273,0,1,1,0-6.547h8.224a3.273,3.273,0,1,1,0,6.547Z" transform="translate(-144.312 -167.101)"/><path class="g" d="M227.737,263.2h-.127a3.273,3.273,0,1,1,0-6.547h.127a3.273,3.273,0,0,1,0,6.547Z" transform="translate(-133.839 -167.101)"/><path class="g" d="M164.528,263.2h-50.06a3.273,3.273,0,0,1,0-6.547h50.06a3.273,3.273,0,1,1,0,6.547Z" transform="translate(-82.423 -167.101)"/><path class="g" d="M77.76,263.2H61.73a3.273,3.273,0,0,1,0-6.547H77.76a3.273,3.273,0,0,1,0,6.547Z" transform="translate(-58.457 -167.101)"/></g><path class="h" d="M330.187,210.075A21.38,21.38,0,0,0,309.522,193.7H262.969l-33.285-12.689a7.992,7.992,0,0,0-2.613-.442,8.45,8.45,0,0,0-7.5,4.708,8.2,8.2,0,0,0,5.216,11.474l31.07,11.184A43.087,43.087,0,0,0,270.53,210.5l.005,40.65v1.577h46.651V231.6a1.77,1.77,0,0,1,3.486-.431l5.025,19.978v1.577H341.06v-1.577Z" transform="translate(-92.138 -63.426)"/></g><text class="i" transform="translate(207.085 456.907)"><tspan x="-125.481" y="0">Virtual Class</tspan></text></g></svg>