<svg xmlns="http://www.w3.org/2000/svg" xmlns:xlink="http://www.w3.org/1999/xlink" width="504" height="592" viewBox="0 0 504 592"><defs><style>.a{fill:#fff;}.b{fill:#748a9d;font-size:40px;font-family:Montserrat-Medium, Montserrat;font-weight:500;letter-spacing:-0.01em;}.c{fill:#2dc2b4;}.d{fill:#dbdbdb;}.e{fill:#88ced9;}.f{fill:#de4c3b;}.g{fill:#fdb62f;}.h{fill:#3e8cc7;}.i{fill:#bef5fa;}.j{fill:#6cbbc7;}.k{fill:#b9b9b9;}.l{fill:#f85542;}.m{fill:#9c9c9c;}.n{fill:#d38e14;}.o{fill:#acdee3;}.p{filter:url(#a);}</style><filter id="a" x="0" y="0" width="504" height="592" filterUnits="userSpaceOnUse"><feOffset dy="5" input="SourceAlpha"/><feGaussianBlur stdDeviation="15" result="b"/><feFlood flood-opacity="0.071"/><feComposite operator="in" in2="b"/><feComposite in="SourceGraphic"/></filter></defs><g transform="translate(45.339 40.432)"><g class="p" transform="matrix(1, 0, 0, 1, -45.34, -40.43)"><rect class="a" width="414" height="502" rx="8" transform="translate(45 40)"/></g><text class="b" transform="translate(199.661 458.568)"><tspan x="-177.36" y="0">Video Conference</tspan></text><g transform="translate(31.49 43.417)"><rect class="c" width="273" height="211" rx="32" transform="translate(24.17 44.151)"/><path class="d" d="M24,344H296.7a20.977,20.977,0,0,1-20.977,20.977H44.977A20.977,20.977,0,0,1,24,344Z" transform="translate(0 -110.246)"/><path class="e" d="M24,200h94.4v73.42H24Z" transform="translate(0 -60.644)"/><circle class="f" cx="16" cy="16" r="16" transform="translate(55.17 160.151)"/><path class="f" d="M108.443,298.222H56a26.222,26.222,0,0,1,52.443,0Z" transform="translate(-11.023 -85.445)"/><path class="g" d="M168,200h94.4v73.42H168Z" transform="translate(-49.602 -60.644)"/><ellipse class="h" cx="15.5" cy="16" rx="15.5" ry="16" transform="translate(150.17 160.151)"/><path class="h" d="M252.443,298.222H200a26.222,26.222,0,0,1,52.443,0Z" transform="translate(-60.625 -85.445)"/><path class="i" d="M236.443,88H194.489A10.489,10.489,0,0,0,184,98.489v20.977a10.489,10.489,0,0,0,10.489,10.489h10.489l10.489,10.489,10.489-10.489h10.489a10.489,10.489,0,0,0,10.489-10.489V98.489A10.489,10.489,0,0,0,236.443,88Z" transform="translate(-55.114 -22.065)"/><path class="i" d="M108.443,88H66.489A10.489,10.489,0,0,0,56,98.489v20.977a10.489,10.489,0,0,0,10.489,10.489H76.977l10.489,10.489,10.489-10.489h10.489a10.489,10.489,0,0,0,10.489-10.489V98.489A10.489,10.489,0,0,0,108.443,88Z" transform="translate(-11.023 -22.065)"/><g transform="translate(60.71 81.668)"><path class="j" d="M80,112H90.489v10.489H80Z" transform="translate(-80 -112)"/><path class="j" d="M112,112h10.489v10.489H112Z" transform="translate(-91.023 -112)"/><path class="j" d="M208,112h10.489v10.489H208Z" transform="translate(-124.091 -112)"/><path class="j" d="M240,112h10.489v10.489H240Z" transform="translate(-135.114 -112)"/></g><path class="d" d="M269.329,476.977H112V466.489A10.489,10.489,0,0,1,122.489,456H258.841a10.489,10.489,0,0,1,10.489,10.489Z" transform="translate(-30.313 -148.826)"/><path class="k" d="M238.932,376H186.489L176,428.443h73.42ZM212.71,412.71A10.489,10.489,0,1,1,223.2,402.222,10.489,10.489,0,0,1,212.71,412.71Z" transform="translate(-52.358 -121.269)"/><circle class="g" cx="36.5" cy="36.5" r="36.5" transform="translate(234.17 24.151)"/><path class="l" d="M384,87.466V56l31.466,15.733Z" transform="translate(-124.006 -11.042)"/><path class="i" d="M136,400h10.489v10.489H136Z" transform="translate(-38.58 -129.536)"/><path class="i" d="M104,400h10.489v10.489H104Z" transform="translate(-27.557 -129.536)"/><path class="i" d="M56,400H76.977v10.489H56Z" transform="translate(-11.023 -129.536)"/><path class="m" d="M245.439,386.489,243.341,376H190.9l-2.1,10.489Z" transform="translate(-56.767 -121.269)"/><rect class="i" width="115" height="210" rx="16" transform="translate(213.17 118.151)"/><ellipse class="g" cx="36.5" cy="37" rx="36.5" ry="37" transform="translate(234.17 160.151)"/><ellipse class="n" cx="15.5" cy="16" rx="15.5" ry="16" transform="translate(255.17 181.151)"/><path class="e" d="M362.489,428.443h41.955a10.489,10.489,0,0,0,10.489-10.489V396.977a10.489,10.489,0,0,0-10.489-10.489H393.955L383.466,376l-10.489,10.489H362.489A10.489,10.489,0,0,0,352,396.977v20.977A10.489,10.489,0,0,0,362.489,428.443Z" transform="translate(-112.983 -121.269)"/><path class="j" d="M408,416h10.489v10.489H408Z" transform="translate(-132.273 -135.048)"/><path class="j" d="M376,416h10.489v10.489H376Z" transform="translate(-121.25 -135.048)"/><rect class="o" width="73" height="21" rx="10.5" transform="translate(239.17 118.151)"/><path class="n" d="M387.166,304a26.169,26.169,0,0,0-24.424,16.863,36.552,36.552,0,0,0,48.848,0A26.17,26.17,0,0,0,387.166,304Z" transform="translate(-116.683 -96.468)"/></g></g></svg>