<svg xmlns="http://www.w3.org/2000/svg" xmlns:xlink="http://www.w3.org/1999/xlink" width="501" height="592" viewBox="0 0 501 592"><defs><style>.a{fill:#fff;}.b{fill:#748a9d;font-size:41px;font-family:Montserrat-Medium, Montserrat;font-weight:500;letter-spacing:-0.01em;}.c{fill:#e6e7e8;}.d{fill:#00ccb3;}.e{fill:#ffd422;}.f{fill:#ffa733;}.g{fill:#ff6243;}.h{fill:#acabb1;}.i{fill:#c6c5ca;}.j{fill:#ff5023;}.k{fill:#ebbf00;}.l{filter:url(#a);}</style><filter id="a" x="0" y="0" width="501" height="592" filterUnits="userSpaceOnUse"><feOffset dy="5" input="SourceAlpha"/><feGaussianBlur stdDeviation="15" result="b"/><feFlood flood-opacity="0.071"/><feComposite operator="in" in2="b"/><feComposite in="SourceGraphic"/></filter></defs><g transform="translate(45.339 40.093)"><g class="l" transform="matrix(1, 0, 0, 1, -45.34, -40.09)"><rect class="a" width="411" height="502" rx="8" transform="translate(45 40)"/></g><text class="b" transform="translate(220.661 456.907)"><tspan x="-88.294" y="0">COURSE</tspan></text><g transform="translate(65.522 86.959)"><path class="c" d="M130.659,0h167.9a18.656,18.656,0,0,1,18.655,18.655V251.847A18.655,18.655,0,0,1,298.557,270.5h-167.9A18.653,18.653,0,0,1,112,251.847V18.655A18.655,18.655,0,0,1,130.659,0Zm0,0" transform="translate(-46.706)"/><path class="d" d="M65.294,136.608A74.649,74.649,0,0,0,21.826,263.417l16.51-16.51a51.275,51.275,0,0,1,36.286-87.588V136a68.679,68.679,0,0,0-9.328.608Zm0,0" transform="translate(0.004 -56.715)"/><path class="e" d="M172.634,264h23.319a74.621,74.621,0,0,1-74.621,74.621,77.412,77.412,0,0,1-9.328-.558v-23.6A51.384,51.384,0,0,0,172.634,264Zm0,0" transform="translate(-46.706 -110.094)"/><path class="e" d="M80.91,340.421v23.6a74.583,74.583,0,0,1-43.468-21.267l16.51-16.51A51.167,51.167,0,0,0,80.91,340.421Zm0,0" transform="translate(-15.612 -136.05)"/><path class="f" d="M362.659,137.328A9.328,9.328,0,1,1,353.332,128,9.328,9.328,0,0,1,362.659,137.328Zm0,0" transform="translate(-143.455 -53.379)"/><path class="g" d="M202.625,210.621H179.306a51.276,51.276,0,0,0-51.3-51.3V136A74.622,74.622,0,0,1,202.625,210.621Zm0,0" transform="translate(-53.378 -56.715)"/><path class="g" d="M395.987,0V46.638L382,32.647,368,46.638V0Zm0,0" transform="translate(-153.463)"/><path class="h" d="M152,40h18.655v9.328H152Zm0,0" transform="translate(-63.387 -16.681)"/><path class="i" d="M200,40h46.638v9.328H200Zm0,0" transform="translate(-83.404 -16.681)"/><path class="i" d="M152,72h74.621v9.328H152Zm0,0" transform="translate(-63.387 -30.026)"/><path class="j" d="M248.94,157.953l-6.593-6.595,13.991-13.991a4.661,4.661,0,0,1,3.3-1.366h27.983v9.328H261.565Zm0,0" transform="translate(-101.062 -56.715)"/><path class="e" d="M263.62,400.3H235.637a4.661,4.661,0,0,1-3.3-1.366l-13.991-13.992,6.593-6.595,12.625,12.625H263.62Zm0,0" transform="translate(-91.053 -157.778)"/><path class="k" d="M312,400h27.983v9.328H312Zm0,0" transform="translate(-130.11 -166.809)"/><path class="k" d="M312,368h27.983v9.328H312Zm0,0" transform="translate(-130.11 -153.464)"/><g transform="translate(181.894 125.923)"><path class="i" d="M312,216H377.3v9.328H312Zm0,0" transform="translate(-312.004 -216)"/><path class="i" d="M312,248H377.3v9.328H312Zm0,0" transform="translate(-312.004 -229.345)"/><path class="i" d="M312,280H377.3v9.328H312Zm0,0" transform="translate(-312.004 -242.689)"/></g></g></g></svg>