<svg xmlns="http://www.w3.org/2000/svg" xmlns:xlink="http://www.w3.org/1999/xlink" width="500" height="592" viewBox="0 0 500 592"><defs><style>.a{fill:#fff;}.b{fill:#748a9d;font-size:40px;font-family:Montserrat-Medium, Montserrat;font-weight:500;letter-spacing:-0.01em;}.c{fill:#1e88e5;}.d{fill:#2196f3;}.e{fill:#ffc107;}.f{fill:#fafafa;}.g{filter:url(#a);}</style><filter id="a" x="0" y="0" width="500" height="592" filterUnits="userSpaceOnUse"><feOffset dy="5" input="SourceAlpha"/><feGaussianBlur stdDeviation="15" result="b"/><feFlood flood-opacity="0.071"/><feComposite operator="in" in2="b"/><feComposite in="SourceGraphic"/></filter></defs><g transform="translate(44.915 40.432)"><g class="g" transform="matrix(1, 0, 0, 1, -44.91, -40.43)"><rect class="a" width="410" height="502" rx="8" transform="translate(45 40)"/></g><text class="b" transform="translate(199.085 458.568)"><tspan x="-163.74" y="0">Video Broadcast</tspan></text><g transform="translate(59.085 49.421)"><path class="c" d="M83.255,147.852a9.292,9.292,0,0,1-3.79-.812L17.939,119.353a9.21,9.21,0,0,1-5.439-8.417V49.41a9.23,9.23,0,0,1,5.439-8.417L79.465,13.307a9.23,9.23,0,0,1,13.019,8.417v116.9a9.228,9.228,0,0,1-9.229,9.229Z" transform="translate(141.314 141.319)"/><path class="d" d="M144.585,159.662H27.687A27.72,27.72,0,0,1,0,131.975V39.687A27.72,27.72,0,0,1,27.687,12h116.9a27.72,27.72,0,0,1,27.687,27.687v92.288A27.72,27.72,0,0,1,144.585,159.662Z" transform="translate(0 135.662)"/><path class="e" d="M58.144,135.356a9.226,9.226,0,0,1-9.229-9.229V98.441H33.534A21.558,21.558,0,0,1,12,76.907V21.534A21.558,21.558,0,0,1,33.534,0H138.128a21.558,21.558,0,0,1,21.534,21.534V76.907a21.558,21.558,0,0,1-21.534,21.534H96.044l-31.1,33.925A9.235,9.235,0,0,1,58.144,135.356Z" transform="translate(135.662 0)"/><g transform="translate(181.501 39.992)"><circle class="f" cx="9.229" cy="9.229" r="9.229"/><circle class="f" cx="9.229" cy="9.229" r="9.229" transform="translate(30.763)"/><circle class="f" cx="9.229" cy="9.229" r="9.229" transform="translate(61.526)"/></g></g></g></svg>