<svg xmlns="http://www.w3.org/2000/svg" xmlns:xlink="http://www.w3.org/1999/xlink" width="501" height="592" viewBox="0 0 501 592"><defs><style>.a{fill:#fff;}.b{fill:#748a9d;font-size:41px;font-family:Montserrat-Medium, Montserrat;font-weight:500;letter-spacing:-0.01em;}.c{fill:#62a6fd;}.d{fill:#81b8fd;}.e{fill:#c0dbff;}.f{fill:#ffe046;}.g{fill:#ffe4c2;}.h{fill:#fff5f4;}.i{fill:#ebe0da;}.j{fill:#d19a75;}.k{fill:#c8bebc;}.l{fill:#c9885b;}.m{filter:url(#a);}</style><filter id="a" x="0" y="0" width="501" height="592" filterUnits="userSpaceOnUse"><feOffset dy="5" input="SourceAlpha"/><feGaussianBlur stdDeviation="15" result="b"/><feFlood flood-opacity="0.071"/><feComposite operator="in" in2="b"/><feComposite in="SourceGraphic"/></filter></defs><g transform="translate(45.339 40.093)"><g class="m" transform="matrix(1, 0, 0, 1, -45.34, -40.09)"><rect class="a" width="411" height="502" rx="8" transform="translate(45 40)"/></g><text class="b" transform="translate(220.661 456.907)"><tspan x="-171.647" y="0">Video Streaming</tspan></text><g transform="translate(62.364 96.508)"><path class="c" d="M262.8,393.109H197.172l20.384-101.492h24.861Zm0,0" transform="translate(-87.189 -128.952)"/><path class="d" d="M261.3,482.007H157.148a6.934,6.934,0,0,1-6.933-6.933v-8.851a6.933,6.933,0,0,1,6.933-6.933H261.3a6.933,6.933,0,0,1,6.933,6.933v8.851A6.934,6.934,0,0,1,261.3,482.007Zm0,0" transform="translate(-66.425 -203.097)"/><path class="e" d="M285.595,10.64V194.789a10.638,10.638,0,0,1-10.64,10.64H10.639A10.638,10.638,0,0,1,0,194.789V10.64A10.636,10.636,0,0,1,10.639,0H274.955a10.636,10.636,0,0,1,10.64,10.64Zm0,0" transform="translate(0 0)"/><path class="f" d="M466.673,329.528a7.154,7.154,0,1,1-7.153-7.153A7.154,7.154,0,0,1,466.673,329.528Zm0,0" transform="translate(-200.034 -142.554)"/><path class="f" d="M412.194,329.528a7.156,7.156,0,1,1-7.156-7.153A7.156,7.156,0,0,1,412.194,329.528Zm0,0" transform="translate(-175.943 -142.554)"/><path class="c" d="M31.291,339.025H10.64A10.638,10.638,0,0,1,0,328.386V302.121H20.652v26.265A10.639,10.639,0,0,0,31.291,339.025Zm0,0" transform="translate(0 -133.597)"/><path class="g" d="M185.149,124.245a10.87,10.87,0,1,1-10.871-10.871A10.87,10.87,0,0,1,185.149,124.245Zm0,0" transform="translate(-72.26 -50.134)"/><path class="g" d="M121.014,39.406h-39a9.329,9.329,0,0,0-9.328,9.33V99.279c0,15.608,21.687,28.258,28.829,28.261h0c7.14,0,28.829-12.653,28.829-28.261V48.736a9.33,9.33,0,0,0-9.33-9.33Zm0,0" transform="translate(-32.141 -17.426)"/><path class="d" d="M285.595,302.117v26.267a10.638,10.638,0,0,1-10.64,10.64H10.639A10.638,10.638,0,0,1,0,328.384V302.117Zm0,0" transform="translate(0 -133.596)"/><path class="h" d="M133.953,235.89a8.436,8.436,0,0,1-8.439,8.437H49.92a8.429,8.429,0,0,1-8.432-8.437,38.5,38.5,0,0,1,38.538-38.538H95.41a38.546,38.546,0,0,1,38.543,38.538Zm0,0" transform="translate(-18.346 -87.268)"/><path class="i" d="M293.1,165.383l-42,31.806a3.577,3.577,0,0,1-5.164-4.791l17.5-27.014Zm0,0" transform="translate(-108.486 -73.132)"/><path class="h" d="M359.471,115.8H244.78A7.782,7.782,0,0,1,237,108.02V49.229a7.782,7.782,0,0,1,7.783-7.783H359.471a7.782,7.782,0,0,1,7.783,7.783V108.02A7.782,7.782,0,0,1,359.471,115.8Zm0,0" transform="translate(-104.8 -18.327)"/><path class="j" d="M116.018,19.137h-26.3A15.881,15.881,0,0,0,74.237,30.323a10.916,10.916,0,0,0-3.066-.436H68.428c-5.72,0-10.354,4.356-10.354,9.729V51.162a7.569,7.569,0,0,0,7.794,7.323h5.3A10.11,10.11,0,0,0,81.5,49.439c8.533,8.67,23.356,14.2,40.883,14h4.783c2.689,0,4.87-2.6,4.87-5.811V34.182c0-8.31-7.171-15.045-16.015-15.045Zm0,0" transform="translate(-25.68 -8.462)"/><path class="k" d="M116.438,197.352h8.851v46.975h-8.851Zm0,0" transform="translate(-51.489 -87.269)"/><path class="k" d="M82.374,241.828H66.585a4.425,4.425,0,0,0,0,8.851H82.374a4.425,4.425,0,0,0,0-8.851Zm0,0" transform="translate(-27.487 -106.936)"/><path class="k" d="M161.441,241.828H145.652a4.425,4.425,0,0,0,0,8.851h15.788a4.425,4.425,0,0,0,0-8.851Zm0,0" transform="translate(-62.45 -106.936)"/><path class="k" d="M264.34,75.452h95.838a4.425,4.425,0,0,0,0-8.851H264.34a4.425,4.425,0,1,0,0,8.851Zm0,0" transform="translate(-114.934 -29.451)"/><path class="k" d="M264.34,109.015h82.609a4.425,4.425,0,1,0,0-8.851H264.34a4.425,4.425,0,1,0,0,8.851Zm0,0" transform="translate(-114.934 -44.292)"/><path class="k" d="M360.177,133.727H264.339a4.425,4.425,0,1,0,0,8.851h95.838a4.425,4.425,0,0,0,0-8.851Zm0,0" transform="translate(-114.933 -59.134)"/><path class="f" d="M466.673,329.528a7.154,7.154,0,1,1-7.153-7.153A7.154,7.154,0,0,1,466.673,329.528Zm0,0" transform="translate(-200.034 -142.554)"/><path class="f" d="M412.194,329.528a7.156,7.156,0,1,1-7.156-7.153A7.156,7.156,0,0,1,412.194,329.528Zm0,0" transform="translate(-175.943 -142.554)"/><g transform="translate(50.065 65.232)"><path class="l" d="M122.378,144.82a4.426,4.426,0,0,0-4.425,4.425,2.9,2.9,0,1,1-5.809,0,4.425,4.425,0,1,0-8.851,0,11.755,11.755,0,1,0,23.51,0,4.426,4.426,0,0,0-4.425-4.425Zm0,0" transform="translate(-95.741 -129.272)"/><path class="l" d="M151.337,121.767a4.821,4.821,0,1,1-4.822-4.822A4.821,4.821,0,0,1,151.337,121.767Zm0,0" transform="translate(-112.722 -116.945)"/><path class="l" d="M99.4,121.767a4.822,4.822,0,1,1-4.822-4.822A4.823,4.823,0,0,1,99.4,121.767Zm0,0" transform="translate(-89.754 -116.945)"/></g><path class="g" d="M185.149,124.245a10.87,10.87,0,1,1-10.871-10.871A10.87,10.87,0,0,1,185.149,124.245Zm0,0" transform="translate(-137.26 -50.134)"/></g></g></svg>