<svg xmlns="http://www.w3.org/2000/svg" xmlns:xlink="http://www.w3.org/1999/xlink" width="500" height="592" viewBox="0 0 500 592"><defs><style>.a{fill:#fff;}.b{fill:#748a9d;font-size:40px;font-family:Montserrat-Medium, Montserrat;font-weight:500;letter-spacing:-0.01em;}.c{fill:#5aaae7;}.d{fill:#c6c5ca;}.e{fill:#3d9ae2;}.f{fill:#ffd422;}.g{fill:#e6e7e8;}.h{fill:#d1d3d4;}.i{fill:#898890;}.j{fill:#acabb1;}.k{fill:#00ccb3;}.l{fill:#ebbf00;}.m{fill:#00b39d;}.n{fill:#ff9811;}.o{filter:url(#a);}</style><filter id="a" x="0" y="0" width="500" height="592" filterUnits="userSpaceOnUse"><feOffset dy="5" input="SourceAlpha"/><feGaussianBlur stdDeviation="15" result="b"/><feFlood flood-opacity="0.071"/><feComposite operator="in" in2="b"/><feComposite in="SourceGraphic"/></filter></defs><g transform="translate(44.915 40.432)"><g class="o" transform="matrix(1, 0, 0, 1, -44.91, -40.43)"><rect class="a" width="410" height="502" rx="8" transform="translate(45 40)"/></g><text class="b" transform="translate(199.085 458.568)"><tspan x="-108.32" y="0">Virtual Lab</tspan></text><g transform="translate(56.628 47.386)"><path class="c" d="M264.929,11H27.577A21.577,21.577,0,0,0,6,32.577V172.831H286.506V32.577A21.577,21.577,0,0,0,264.929,11Z" transform="translate(0 39.549)"/><path class="d" d="M286.506,41V62.577a21.577,21.577,0,0,1-21.577,21.577H27.577A21.577,21.577,0,0,1,6,62.577V41Z" transform="translate(0 171.38)"/><path class="e" d="M129.581,136.149,114.962,102.7,98.455,64.944V32.577a10.789,10.789,0,1,0,0-21.577H66.089a10.789,10.789,0,1,0,0,21.577V64.944L49.582,102.7,34.964,136.149a10.789,10.789,0,0,0,9.872,15.1h74.874a10.789,10.789,0,0,0,9.872-15.1Z" transform="translate(123.319 39.549)"/><path class="f" d="M129.581,59.445a10.789,10.789,0,0,1-9.872,15.1H44.835a10.789,10.789,0,0,1-9.872-15.1L49.582,26h65.38Z" transform="translate(123.319 105.465)"/><path class="g" d="M85.813,45.366l16.507,37.76H36.94l16.507-37.76V13H85.813Z" transform="translate(135.961 48.338)"/><path class="h" d="M88.761,12.183A10.546,10.546,0,0,0,81.155,9H48.789a10.789,10.789,0,1,0,0,21.577H81.155A10.821,10.821,0,0,0,91.944,19.789a10.546,10.546,0,0,0-3.183-7.606Z" transform="translate(140.619 30.76)"/><path class="i" d="M146.282,60.183a10.546,10.546,0,0,1,3.183,7.606,10.821,10.821,0,0,1-10.789,10.789H30.789a10.789,10.789,0,1,1,0-21.577H138.676A10.546,10.546,0,0,1,146.282,60.183Z" transform="translate(61.521 241.689)"/><path class="j" d="M110.31,92.155H24L29.394,49h75.521Z" transform="translate(79.098 206.535)"/><path class="e" d="M107.264,89.7A48.447,48.447,0,0,0,76.732,56.96V32.577a10.789,10.789,0,1,0,0-21.577H44.366a10.789,10.789,0,1,0,0,21.577V56.96A48.549,48.549,0,0,0,14.913,86.305,47.249,47.249,0,0,0,12,102.7a48.549,48.549,0,1,0,97.1,0,45.08,45.08,0,0,0-1.834-13Z" transform="translate(26.366 39.549)"/><path class="k" d="M107.264,29.083a45.08,45.08,0,0,1,1.834,13,48.549,48.549,0,1,1-97.1,0,47.249,47.249,0,0,1,2.913-16.4,51.5,51.5,0,0,0,20.445,3.776c19.8,0,19.8-7.121,39.541-7.121C91.944,22.34,94.318,27.626,107.264,29.083Z" transform="translate(26.366 89.381)"/><path class="g" d="M74.359,37.382a48.447,48.447,0,0,1,30.532,32.744c-12.946-1.456-15.32-6.743-32.366-6.743-19.743,0-19.743,7.121-39.541,7.121A51.5,51.5,0,0,1,12.54,66.728,48.549,48.549,0,0,1,41.993,37.382V13H74.359Z" transform="translate(28.739 48.338)"/><path class="h" d="M66.761,12.183A10.546,10.546,0,0,0,59.155,9H26.789a10.789,10.789,0,1,0,0,21.577H59.155A10.821,10.821,0,0,0,69.944,19.789a10.546,10.546,0,0,0-3.183-7.606Z" transform="translate(43.944 30.76)"/><path class="i" d="M102.968,59.789H24.75L26.1,49H101.62Z" transform="translate(82.394 206.535)"/><path class="i" d="M51,44H61.789V54.789H51Z" transform="translate(197.746 184.563)"/><g transform="translate(178.619 142.253)"><path class="l" d="M42,30H52.789V40.789H42Z" transform="translate(-20.423 -19.211)"/><path class="l" d="M38,28H48.789V38.789H38Z" transform="translate(-38 -28)"/><path class="l" d="M46,29H56.789V39.789H46Z" transform="translate(-2.845 -23.606)"/></g><path class="d" d="M43,21H53.789V31.789H43Z" transform="translate(162.591 83.493)"/><path class="m" d="M16,27H26.789V37.789H16Z" transform="translate(43.944 109.859)"/><path class="m" d="M21,30H31.789V40.789H21Z" transform="translate(65.915 123.042)"/><path class="m" d="M22,25H32.789V35.789H22Z" transform="translate(70.31 101.07)"/><path class="d" d="M19,19H29.789V29.789H19Z" transform="translate(57.127 74.704)"/><path class="n" d="M149.464,39.76H138.676V12.789H30.789V39.76H20V7.394A5.394,5.394,0,0,1,25.394,2H144.07a5.394,5.394,0,0,1,5.394,5.394Z" transform="translate(61.521 0)"/></g></g></svg>