<svg xmlns="http://www.w3.org/2000/svg" xmlns:xlink="http://www.w3.org/1999/xlink" width="501" height="592" viewBox="0 0 501 592"><defs><style>.a{fill:#fff;}.b{fill:#748a9d;font-size:41px;font-family:Montserrat-Medium, Montserrat;font-weight:500;letter-spacing:-0.01em;}.c{fill:#ffa000;}.d{fill:#ffc107;}.e{fill:#f44336;}.f{filter:url(#a);}</style><filter id="a" x="0" y="0" width="501" height="592" filterUnits="userSpaceOnUse"><feOffset dy="5" input="SourceAlpha"/><feGaussianBlur stdDeviation="15" result="b"/><feFlood flood-opacity="0.071"/><feComposite operator="in" in2="b"/><feComposite in="SourceGraphic"/></filter></defs><g transform="translate(45.339 40.093)"><g class="f" transform="matrix(1, 0, 0, 1, -45.34, -40.09)"><rect class="a" width="411" height="502" rx="8" transform="translate(45 40)"/></g><text class="b" transform="translate(206.661 456.907)"><tspan x="-99.097" y="0">UPDATES</tspan></text><g transform="translate(92.57 73.788)"><path class="c" d="M217.057,385.861a44.528,44.528,0,1,1-44.529-44.529A44.528,44.528,0,0,1,217.057,385.861Zm0,0" transform="translate(-61.208 -163.221)"/><path class="d" d="M189.332,153.108a77.742,77.742,0,0,1-60.28-108.327A77.66,77.66,0,0,0,33.4,120.591v31.036A74.641,74.641,0,0,1,6.812,208.767,19.479,19.479,0,0,0,19.48,243.044H203.158a19.482,19.482,0,0,0,12.558-34.376,74.536,74.536,0,0,1-26.384-55.559Zm0,0" transform="translate(0 -20.403)"/><path class="e" d="M388.653,55.661A55.661,55.661,0,1,1,332.993,0,55.66,55.66,0,0,1,388.653,55.661Zm0,0" transform="translate(-132.617 0)"/></g></g></svg>