<svg xmlns="http://www.w3.org/2000/svg" xmlns:xlink="http://www.w3.org/1999/xlink" width="504" height="592" viewBox="0 0 504 592"><defs><style>.a{fill:#fff;}.b{fill:#748a9d;font-size:40px;font-family:Montserrat-Medium, Montserrat;font-weight:500;letter-spacing:-0.01em;}.c{fill:#da4453;}.d{fill:#5d9cec;}.e{fill:#f5f7fa;}.f{fill:#eac6bb;}.g{fill:#965353;}.h{fill:#ed5565;}.i{filter:url(#a);}</style><filter id="a" x="0" y="0" width="504" height="592" filterUnits="userSpaceOnUse"><feOffset dy="5" input="SourceAlpha"/><feGaussianBlur stdDeviation="15" result="b"/><feFlood flood-opacity="0.071"/><feComposite operator="in" in2="b"/><feComposite in="SourceGraphic"/></filter></defs><g transform="translate(45.339 40.432)"><g class="i" transform="matrix(1, 0, 0, 1, -45.34, -40.43)"><rect class="a" width="414" height="502" rx="8" transform="translate(45 40)"/></g><text class="b" transform="translate(199.661 458.568)"><tspan x="-73.7" y="0">Doubts</tspan></text><g transform="translate(33.661 49.418)"><path class="c" d="M380.9,258.454l-15.674-.005a5.225,5.225,0,0,1,0-10.449l15.674.005a5.225,5.225,0,0,1,0,10.449Zm0,0" transform="translate(-124.893 -86.037)"/><path class="c" d="M335.736,162.052a5.225,5.225,0,0,1-3.694-8.919l11.087-11.077a5.224,5.224,0,0,1,7.388,7.388L339.43,160.521A5.214,5.214,0,0,1,335.736,162.052Zm0,0" transform="translate(-114.662 -48.751)"/><path class="c" d="M245.241,122.107a5.222,5.222,0,0,1-5.225-5.225V101.209a5.225,5.225,0,0,1,10.449,0v15.674A5.22,5.22,0,0,1,245.241,122.107Zm0,0" transform="translate(-83.267 -33.299)"/><path class="c" d="M148.842,162.034a5.214,5.214,0,0,1-3.694-1.531l-11.082-11.082a5.224,5.224,0,0,1,7.388-7.388l11.082,11.082a5.225,5.225,0,0,1-3.694,8.919Zm0,0" transform="translate(-45.98 -48.743)"/><path class="c" d="M116.9,258.449H101.232a5.225,5.225,0,1,1,0-10.449H116.9a5.225,5.225,0,1,1,0,10.449Zm0,0" transform="translate(-33.307 -86.037)"/><path class="d" d="M190.7,426.449l15.674-5.225,15.674,5.225L232.492,416h20.9a31.343,31.343,0,0,1,31.348,31.348v15.674a10.411,10.411,0,0,1-10.449,10.449H138.449A10.443,10.443,0,0,1,128,463.021V447.348A31.343,31.343,0,0,1,159.348,416h20.9Zm0,0" transform="translate(-44.406 -144.32)"/><path class="e" d="M234.123,396.672a57.09,57.09,0,0,0,26.123-6.265v16.715L249.8,417.57l-15.674-5.225-15.674,5.225L208,407.121V390.406A57.09,57.09,0,0,0,234.123,396.672Zm0,0" transform="translate(-72.16 -135.441)"/><path class="f" d="M274.941,271.674v20.949A57.471,57.471,0,0,1,160,292.572v-20.9L175.674,256s19.437,10.449,41.8,10.449c22.414,0,41.8-10.449,41.8-10.449Zm0,0" transform="translate(-55.508 -88.813)"/><path class="g" d="M175.674,225.471,160,241.144V215.021A47.027,47.027,0,0,1,207.021,168h41.8v20.9a26.134,26.134,0,0,1,26.123,26.123v26.123l-15.674-15.674s-19.383,10.449-41.8,10.449C195.11,235.92,175.674,225.471,175.674,225.471Zm0,0" transform="translate(-55.508 -58.283)"/><path class="h" d="M420.572,200A36.572,36.572,0,1,1,384,236.572,36.572,36.572,0,0,1,420.572,200Zm0,0" transform="translate(-133.219 -69.385)"/><path class="h" d="M370.013,58.559a36.6,36.6,0,0,1,0,73.2,36.63,36.63,0,0,1-36.572-36.626,36.6,36.6,0,0,1,36.572-36.572Zm0,0" transform="translate(-115.679 -20.315)"/><path class="h" d="M228.572,0A36.572,36.572,0,1,1,192,36.572,36.572,36.572,0,0,1,228.572,0Zm0,0" transform="translate(-66.609)"/><path class="h" d="M36.572,200A36.572,36.572,0,1,1,0,236.572,36.617,36.617,0,0,1,36.572,200Zm0,0" transform="translate(0 -69.385)"/><path class="h" d="M87.146,58.52A36.6,36.6,0,1,1,50.6,95.117a36.589,36.589,0,0,1,36.544-36.6Zm0,0" transform="translate(-17.555 -20.302)"/><g transform="translate(31.348 15.653)"><path class="e" d="M245.449,466.449A5.225,5.225,0,0,1,245.393,456h.056a5.225,5.225,0,0,1,0,10.449Zm0,0" transform="translate(-114.678 -173.851)"/><path class="e" d="M53.449,282.426a5.225,5.225,0,0,1-.056-10.449h.056a5.225,5.225,0,1,1,0,10.449Zm0,0" transform="translate(-48.069 -110.009)"/><path class="e" d="M53.225,250.11A5.22,5.22,0,0,1,48,244.885V229.2a5.225,5.225,0,1,1,10.449,0v15.684A5.22,5.22,0,0,1,53.225,250.11Zm0,0" transform="translate(-48 -93.356)"/><path class="e" d="M437.457,282.441a5.225,5.225,0,0,1-.056-10.449h.056a5.225,5.225,0,0,1,0,10.449Zm0,0" transform="translate(-181.291 -110.014)"/><path class="e" d="M437.23,250.12a5.223,5.223,0,0,1-5.225-5.225L432,229.217a5.225,5.225,0,0,1,10.449,0l.005,15.679A5.223,5.223,0,0,1,437.23,250.12Zm0,0" transform="translate(-181.219 -93.362)"/><path class="e" d="M386.891,141.015a5.225,5.225,0,0,1-.056-10.449h.056a5.225,5.225,0,1,1,0,10.449Zm0,0" transform="translate(-163.748 -60.95)"/><path class="e" d="M386.66,108.694a5.22,5.22,0,0,1-5.225-5.217l-.01-15.681a5.223,5.223,0,0,1,5.217-5.23h.008a5.224,5.224,0,0,1,5.225,5.22l.01,15.679a5.228,5.228,0,0,1-5.225,5.23Zm0,0" transform="translate(-163.673 -44.298)"/><path class="e" d="M245.468,82.418a5.225,5.225,0,0,1-.059-10.449h.059a5.225,5.225,0,1,1,0,10.449Zm0,0" transform="translate(-114.684 -40.621)"/><path class="e" d="M245.225,50.1A5.22,5.22,0,0,1,240,44.877V29.193a5.225,5.225,0,0,1,10.449,0V44.877A5.22,5.22,0,0,1,245.225,50.1Zm0,0" transform="translate(-114.609 -23.969)"/><path class="e" d="M104.059,140.984A5.225,5.225,0,0,1,104,130.535h.056a5.225,5.225,0,0,1,0,10.449Zm0,0" transform="translate(-65.627 -60.939)"/><path class="e" d="M103.811,108.671a5.218,5.218,0,0,1-5.225-5.225V87.768a5.225,5.225,0,0,1,10.449,0v15.679A5.22,5.22,0,0,1,103.811,108.671Zm0,0" transform="translate(-65.55 -44.29)"/></g></g></g></svg>