<svg xmlns="http://www.w3.org/2000/svg" xmlns:xlink="http://www.w3.org/1999/xlink" width="504" height="592" viewBox="0 0 504 592"><defs><style>.a{fill:#fff;}.b{fill:#748a9d;font-size:40px;font-family:Montserrat-Medium, Montserrat;font-weight:500;letter-spacing:-0.01em;}.c{fill:#6c7ed6;}.d{fill:#60b8fe;}.e{fill:#dfebfa;}.f{filter:url(#a);}</style><filter id="a" x="0" y="0" width="504" height="592" filterUnits="userSpaceOnUse"><feOffset dy="5" input="SourceAlpha"/><feGaussianBlur stdDeviation="15" result="b"/><feFlood flood-opacity="0.071"/><feComposite operator="in" in2="b"/><feComposite in="SourceGraphic"/></filter></defs><g transform="translate(45.339 40.432)"><g class="f" transform="matrix(1, 0, 0, 1, -45.34, -40.43)"><rect class="a" width="414" height="502" rx="8" transform="translate(45 40)"/></g><text class="b" transform="translate(199.661 458.568)"><tspan x="-67.82" y="0">CHATS</tspan></text><g transform="translate(46.297 49.4)"><path class="c" d="M312.824,4H134.1A42.51,42.51,0,0,0,91.716,46.381V60.8h161.67a42.51,42.51,0,0,1,42.385,42.385V208.857h17.053a42.51,42.51,0,0,0,42.385-42.385V46.381A42.509,42.509,0,0,0,312.824,4Z" transform="translate(-34.216 -3.996)"/><path class="d" d="M221.108,91.515H42.385A42.51,42.51,0,0,0,0,133.9V253.99a42.51,42.51,0,0,0,42.385,42.385H149.652a7.149,7.149,0,0,1,6.98,8.756A179.577,179.577,0,0,1,143,343.178a6.514,6.514,0,0,0,9.267,8.435c16.144-9.992,39.114-26.714,58.458-50.354a13.406,13.406,0,0,1,10.383-4.884,42.51,42.51,0,0,0,42.385-42.385V133.9a42.51,42.51,0,0,0-42.385-42.384Z" transform="translate(0 -36.646)"/><g transform="translate(44.688 146.683)"><ellipse class="e" cx="14.065" cy="14.065" rx="14.065" ry="14.065"/><ellipse class="e" cx="14.065" cy="14.065" rx="14.065" ry="14.065" transform="translate(45.428)"/><ellipse class="e" cx="14.065" cy="14.065" rx="14.065" ry="14.065" transform="translate(90.856)"/><ellipse class="e" cx="14.065" cy="14.065" rx="14.065" ry="14.065" transform="translate(136.284)"/></g></g></g></svg>