<?xml version="1.0" encoding="utf-8"?>
<!-- Generator: Adobe Illustrator 24.0.1, SVG Export Plug-In . SVG Version: 6.00 Build 0)  -->
<svg version="1.1" id="Capa_1" xmlns="http://www.w3.org/2000/svg" xmlns:xlink="http://www.w3.org/1999/xlink" x="0px" y="0px"
	 viewBox="0 0 512 512" style="enable-background:new 0 0 512 512;" xml:space="preserve">
<style type="text/css">
	.st0{fill:#EFEDEF;}
	.st1{fill:#C9BFC8;}
	.st2{fill:#5ABFEC;}
	.st3{fill:#FEE45A;}
	.st4{fill:#887D87;}
	.st5{fill:#F9F7F8;}
	.st6{fill:#FFF9E2;}
	.st7{fill:#B0A5AF;}
</style>
<g>
	<path class="st0" d="M344.7,469.8l-16.8-21.3H194.4l-27.1,21.3l-29.2,33.8h235.8L344.7,469.8z"/>
	<path class="st1" d="M167.3,356.8h177.5v113H167.3L167.3,356.8z"/>
	<path class="st2" d="M46.4,399h422.8l42.7-20.8v-273c0-22.9-18.6-41.5-41.5-41.5h-429C18.6,63.7,0,82.3,0,105.2v273l17.8,14.6
		L46.4,399z"/>
	<g>
		<g id="XMLID_1107_">
			<g>
				<path class="st0" d="M0,378.2h512c0,22.9-18.6,41.5-41.5,41.5h-429C18.6,419.8,0,401.2,0,378.2L0,378.2z"/>
			</g>
		</g>
		<g>
			<path class="st1" d="M386.7,511.4H124.6c-4.3,0-7.8-3.5-7.8-7.8s3.5-7.8,7.8-7.8h262.1c4.3,0,7.8,3.5,7.8,7.8
				S391,511.4,386.7,511.4z"/>
		</g>
		<path class="st3" d="M442.2,150.6c8.5,0,15.3,6.9,15.3,15.3V323c0,8.5-6.9,15.3-15.3,15.3H71.4c-8.5,0-15.3-6.9-15.3-15.3V166
			c0-8.5,6.9-15.3,15.3-15.3H442.2z"/>
		<path class="st4" d="M354.4,80.3L322,63.7l-129.7,0l-33.1,16.6v96.5c0,5.3,3.9,9.9,9.2,10.6l8.3,1.2c53.1,7.8,107,7.8,160.1,0
			l8.3-1.2c5.3-0.8,9.2-5.3,9.2-10.6V80.3z"/>
		<g>
			<path class="st4" d="M374,249.5c-4.3,0-7.8-3.5-7.8-7.8v-175c0-4.3,3.5-7.8,7.8-7.8c4.3,0,7.8,3.5,7.8,7.8v175
				C381.8,246.1,378.3,249.5,374,249.5z"/>
		</g>
		<path class="st5" d="M374,227.3c-12.1,0-21.9,9.8-21.9,21.9v19.2c0,3.5,2.8,6.3,6.3,6.3h31.2c3.5,0,6.3-2.8,6.3-6.3v-19.2
			C396,237.1,386.1,227.3,374,227.3L374,227.3z"/>
		<path class="st6" d="M302.1,291.4h-91.7c-6.2,0-11.2-5-11.2-11.2v-25.8c0-6.2,5-11.2,11.2-11.2h91.7c6.2,0,11.2,5,11.2,11.2v25.8
			C313.3,286.4,308.3,291.4,302.1,291.4z"/>
	</g>
	<path class="st7" d="M253.8,126.2L125.1,63.7L253.8,1.2c1.6-0.8,3.4-0.8,4.9,0l121.6,59.1c2.9,1.4,2.9,5.5,0,6.9l-121.6,59.1
		C257.2,126.9,255.4,126.9,253.8,126.2z"/>
</g>
</svg>
